<?xml version="1.0" encoding="UTF-8"?><svg id="Ebene_1" xmlns="http://www.w3.org/2000/svg" viewBox="0 0 1000 500"><defs><style>.cls-1{fill:#1a1c12;}</style></defs><path class="cls-1" d="M35.71,230.67h41.81v143h-41.81v-143ZM77.51,253.77c0-14.85,11.83-26.67,26.67-26.67s26.68,11.83,26.68,26.67-11.83,26.68-26.68,26.68-26.67-11.83-26.67-26.68Z"/><path class="cls-1" d="M138.19,302.17c0-49.5,37.96-75.35,76.73-75.35s76.73,25.85,76.73,75.35-37.96,75.35-76.73,75.35-76.73-25.85-76.73-75.35ZM248.2,302.17c0-23.1-13.2-36.3-33.28-36.3s-33.28,13.2-33.28,36.3,13.2,36.3,33.28,36.3,33.28-13.2,33.28-36.3Z"/><path class="cls-1" d="M315.02,318.67v-88h41.8v79.75c0,17.88,9.36,28.05,24.2,28.05,16.78,0,28.32-10.17,28.32-28.05v-79.75h41.81v143h-41.81v-17.05c-10.45,13.75-26.12,20.9-43.17,20.9-31.35,0-51.15-21.45-51.15-58.85Z"/><path class="cls-1" d="M510.91,194.92h-16.3v35.75h-21.45v37.4h21.45v59.4c0,26.19,19.95,44.38,45.61,46.06-22.76-35.69-35.96-78.07-35.96-123.53,0-18.99,2.32-37.43,6.65-55.08Z"/><path class="cls-1" d="M737.17,265.87c-20.08,0-33.28,13.2-33.28,36.3s13.2,36.3,33.28,36.3,33.27-13.2,33.27-36.3-13.2-36.3-33.27-36.3Z"/><path class="cls-1" d="M734.27,19.98c-108.05,0-198.68,74.51-223.37,174.94h25.5v35.75h30.25v37.4h-30.25v59.4c0,5.5,2.2,8.8,7.7,8.8h19.8v37.4h-19.8c-1.31,0-2.61-.06-3.89-.14,40.84,64.03,112.49,106.49,194.06,106.49,127.04,0,230.02-102.98,230.02-230.02S861.31,19.98,734.27,19.98ZM635.69,373.67h-41.81v-143h41.81v143ZM614.78,222.42c-14.84,0-26.67-11.83-26.67-26.68s11.83-26.67,26.67-26.67,26.68,11.83,26.68,26.67-11.83,26.68-26.68,26.68ZM812.24,425.92h-41.81v-66.82c-10.45,12.1-25.3,18.42-44.27,18.42-33.28,0-65.73-25.85-65.73-75.35s32.45-75.35,65.73-75.35c18.97,0,33.82,6.32,44.27,18.43v-14.57h41.81v195.25ZM866.41,377.52c-14.84,0-26.67-11.83-26.67-26.68s11.83-26.67,26.67-26.67,26.68,11.83,26.68,26.67-11.83,26.68-26.68,26.68Z"/></svg>